<svg xmlns="http://www.w3.org/2000/svg" width="200" viewBox="0 0 150 150" height="200" version="1.0">
    <defs>
        <clipPath id="a">
            <path d="M6.563 6.563h137.25v137.25H6.563Zm0 0" />
        </clipPath>
        <clipPath id="b">
            <path d="M43.496 38.016h62.957v74.25H43.496Zm0 0" />
        </clipPath>
    </defs>
    <g clip-path="url(#a)">
        <path fill="#f97216"
            d="M143.813 75.188a69.06 69.06 0 0 1-.083 3.367 64.428 64.428 0 0 1-.25 3.36 69.097 69.097 0 0 1-.41 3.343 72.651 72.651 0 0 1-1.313 6.605 71.21 71.21 0 0 1-.898 3.246 69.575 69.575 0 0 1-2.27 6.34 69.753 69.753 0 0 1-2.879 6.086 74.471 74.471 0 0 1-1.66 2.934 69.737 69.737 0 0 1-5.816 8.254 68.137 68.137 0 0 1-6.96 7.312 68.137 68.137 0 0 1-2.551 2.2 68.221 68.221 0 0 1-5.41 4.011 69.737 69.737 0 0 1-2.844 1.805 74.471 74.471 0 0 1-2.934 1.66 69.753 69.753 0 0 1-6.086 2.879 69.575 69.575 0 0 1-6.34 2.27 66.458 66.458 0 0 1-3.246.894c-1.09.273-2.187.52-3.289.738a63.967 63.967 0 0 1-3.316.578c-1.113.164-2.227.301-3.344.41a64.428 64.428 0 0 1-3.36.25 69.06 69.06 0 0 1-6.734 0 64.428 64.428 0 0 1-3.36-.25 69.097 69.097 0 0 1-3.343-.41 63.967 63.967 0 0 1-3.316-.578 67.736 67.736 0 0 1-3.29-.738 66.458 66.458 0 0 1-6.44-1.953 67.628 67.628 0 0 1-6.223-2.578 72.236 72.236 0 0 1-3.012-1.512 77.242 77.242 0 0 1-2.93-1.66 69.737 69.737 0 0 1-8.254-5.817 68.137 68.137 0 0 1-7.312-6.96 68.137 68.137 0 0 1-2.2-2.551 68.221 68.221 0 0 1-4.011-5.41 69.737 69.737 0 0 1-1.805-2.844 74.471 74.471 0 0 1-1.66-2.934 69.753 69.753 0 0 1-2.879-6.086 69.575 69.575 0 0 1-3.168-9.586 72.651 72.651 0 0 1-1.312-6.605 69.097 69.097 0 0 1-.41-3.344 64.428 64.428 0 0 1-.25-3.36 69.06 69.06 0 0 1 0-6.734c.054-1.12.136-2.242.25-3.36.109-1.116.246-2.23.41-3.343a72.651 72.651 0 0 1 1.313-6.605 71.21 71.21 0 0 1 .898-3.246 69.575 69.575 0 0 1 2.27-6.34 69.753 69.753 0 0 1 2.879-6.086 74.471 74.471 0 0 1 1.66-2.934 69.737 69.737 0 0 1 5.816-8.254 68.137 68.137 0 0 1 6.96-7.312 68.137 68.137 0 0 1 2.551-2.2 68.221 68.221 0 0 1 5.41-4.011 69.737 69.737 0 0 1 2.844-1.805 77.242 77.242 0 0 1 2.93-1.66 72.236 72.236 0 0 1 6.09-2.879 69.575 69.575 0 0 1 9.586-3.168 72.651 72.651 0 0 1 6.605-1.312c1.113-.164 2.227-.301 3.344-.41a64.428 64.428 0 0 1 3.36-.25 69.06 69.06 0 0 1 6.734 0c1.12.054 2.242.136 3.36.25 1.116.109 2.23.246 3.343.41a72.651 72.651 0 0 1 6.605 1.313 71.21 71.21 0 0 1 3.246.898 69.575 69.575 0 0 1 6.34 2.27 69.753 69.753 0 0 1 6.086 2.879 74.471 74.471 0 0 1 2.934 1.66 69.737 69.737 0 0 1 8.254 5.816 68.137 68.137 0 0 1 7.312 6.96 68.137 68.137 0 0 1 2.2 2.551 68.221 68.221 0 0 1 4.011 5.41 69.737 69.737 0 0 1 1.805 2.844 74.471 74.471 0 0 1 1.66 2.934 69.753 69.753 0 0 1 2.879 6.086 69.575 69.575 0 0 1 3.168 9.586 72.651 72.651 0 0 1 1.312 6.605c.164 1.113.301 2.227.41 3.344.114 1.117.196 2.238.25 3.36a69.06 69.06 0 0 1 .083 3.367Zm0 0" />
    </g>
    <path fill="#fff"
        d="M54.98 79.945a17.747 17.747 0 0 1 16.286-3.554c1.718-1.418 4.437-2.547 7.71-3.266v-2.082c-.94.855-2.246 1.633-3.878 2.289-3.383 1.36-7.864 2.106-12.614 2.106-4.754 0-9.234-.747-12.617-2.106-1.633-.656-2.937-1.434-3.879-2.289v3.508c0 2.18 3.598 4.328 8.992 5.394M50.512 85.645c.77-1.54 1.754-2.961 2.922-4.22-3.309-.784-5.871-1.976-7.446-3.41v3.52c0 1.453 1.676 2.961 4.524 4.11M62.61 90.371v.758h.683ZM45.988 88.52c0 1.105.989 2.257 2.742 3.257.16-1.543.52-3.058 1.07-4.507-1.6-.649-2.882-1.41-3.812-2.25v3.5" />
    <path fill="#fff"
        d="M50.523 71.68c3.18 1.28 7.426 1.984 11.961 1.984 4.532 0 8.778-.703 11.957-1.984 2.883-1.157 4.536-2.657 4.536-4.114V64.06c-.942.859-2.247 1.632-3.88 2.289-3.382 1.359-7.863 2.109-12.613 2.109-4.754 0-9.234-.75-12.617-2.11-1.633-.656-2.937-1.429-3.879-2.288v3.507c0 1.457 1.653 2.957 4.535 4.114M48.133 46.215c.191-.23.66-.7 1.68-1.262l.011-.004c1.04-.558 1.871 1.008.832 1.567-.687.375-1.047.695-1.152.824a.886.886 0 1 1-1.371-1.125Zm5.054-2.586c2.704-.774 5.918-1.184 9.297-1.184 1.176 0 1.176 1.778 0 1.778-3.172 0-6.3.394-8.816 1.113a.825.825 0 0 1-.242.035c-1.024 0-1.227-1.46-.239-1.742Zm-2.664 7.101c3.18 1.278 7.426 1.985 11.961 1.985 4.532 0 8.778-.707 11.957-1.985 2.883-1.16 4.536-2.656 4.536-4.113 0-1.457-1.653-2.957-4.536-4.113-3.18-1.277-7.425-1.98-11.957-1.98-4.535 0-8.78.703-11.96 1.98-2.883 1.156-4.536 2.656-4.536 4.113 0 1.457 1.653 2.953 4.535 4.113M82.54 85.922c1.632.203 3.276.305 4.92.293 4.536 0 8.786-.703 11.966-1.98 2.879-1.157 4.531-2.657 4.531-4.114 0-1.457-1.652-2.957-4.531-4.113-3.18-1.278-7.43-1.98-11.961-1.98-5.766 0-11.16 1.202-14.16 3.077a17.943 17.943 0 0 1 9.234 8.817" />
    <path fill="#fff"
        d="M87.363 87.992c-1.32 0-2.707-.066-4.058-.199.586 1.703.914 3.484.965 5.285 1.062.082 2.132.125 3.19.121 4.536 0 8.786-.703 11.966-1.98 2.879-1.16 4.531-2.66 4.531-4.114v-3.507c-.941.855-2.242 1.629-3.875 2.285-3.387 1.36-7.965 2.11-12.719 2.11M50.523 64.7c3.18 1.277 7.426 1.98 11.961 1.98 4.532 0 8.778-.703 11.957-1.98 2.883-1.157 4.536-2.657 4.536-4.114v-3.508c-.942.856-2.247 1.629-3.88 2.285-3.382 1.364-7.863 2.11-12.613 2.11a40.916 40.916 0 0 1-7.007-.578.873.873 0 0 1-.723-.864v-.023a.873.873 0 0 1 1.027-.86c2.215.372 4.457.555 6.703.547 4.532 0 8.778-.703 11.957-1.98 2.883-1.156 4.536-2.656 4.536-4.113v-3.508c-.942.855-2.247 1.629-3.88 2.285-3.382 1.363-7.863 2.11-12.613 2.11-4.754 0-9.234-.747-12.617-2.11-1.633-.656-2.937-1.43-3.879-2.285v3.508c0 1.113.969 2.253 2.711 3.246.012.004.024.011.031.015a.889.889 0 0 1 .329 1.227.88.88 0 0 1-1.227.297 10.332 10.332 0 0 1-1.844-1.313v3.512c0 1.457 1.653 2.953 4.535 4.113" />
    <path fill="#fff"
        d="M87.41 94.977c-1.039 0-2.117-.04-3.172-.118a17.85 17.85 0 0 1-1.11 5.098 37.38 37.38 0 0 0 4.333.227c4.535 0 8.785-.704 11.965-1.985 2.879-1.156 4.531-2.656 4.531-4.113l.004-3.508c-.945.86-2.246 1.633-3.879 2.29-3.387 1.359-7.922 2.109-12.672 2.109M62.61 92.906v.594h2.804l-.531-.594h-2.274" />
    <path fill="#fff"
        d="M77.898 99.797a.859.859 0 0 1-1.343.223l-.04-.036a.871.871 0 0 1-.163-1.05c2.601-4.895 1.265-10.97-3.149-14.309a11.177 11.177 0 0 0-14.558.918c-3.97 3.867-4.54 10.059-1.348 14.594a11.186 11.186 0 0 0 14.144 3.586.89.89 0 0 1 .805 1.586 12.93 12.93 0 0 1-11.441.07 13.029 13.029 0 0 1-7.055-9.055 13.095 13.095 0 0 1 2.816-11.144 12.96 12.96 0 0 1 10.5-4.575A12.965 12.965 0 0 1 77.754 87.2a13.097 13.097 0 0 1 .144 12.598ZM72.91 93.5c1.18 0 1.18 1.773 0 1.773H71.72v2.95c0 .816-1 1.199-1.54.593l-3.175-3.543h-4.395v2.95c0 1.183-1.765 1.183-1.765 0v-2.95h-1.196c-1.175 0-1.175-1.773 0-1.773h1.196v-.594h-1.196c-1.175 0-1.175-1.777 0-1.777h1.196v-3.074c0-.817 1-1.2 1.539-.594l3.289 3.668h4.277v-3.074c0-1.184 1.77-1.184 1.77 0v3.074h1.191c1.18 0 1.18 1.777 0 1.777H71.72v.594Zm8.578 1.023c-1.18 0-1.18-1.777 0-1.777h.996a16.073 16.073 0 0 0-4.074-9.867l-.7.703c-.831.84-2.085-.418-1.25-1.254l.7-.703a15.924 15.924 0 0 0-9.82-4.094v1c0 1.188-1.766 1.188-1.766 0v-1c-3.64.2-7.105 1.645-9.82 4.094l.7.703a.889.889 0 0 1 0 1.258.882.882 0 0 1-1.247 0l-.703-.707a16.118 16.118 0 0 0-4.074 9.867h.996c1.18 0 1.18 1.777 0 1.777h-.996c.199 3.66 1.636 7.141 4.074 9.864l.7-.703c.835-.836 2.085.418 1.25 1.257l-.7.704a15.956 15.956 0 0 0 9.82 4.093v-1.004c0-1.183 1.766-1.183 1.766 0v1.004c3.644-.199 7.11-1.644 9.82-4.093l-.7-.704c-.831-.84.419-2.093 1.25-1.257l.7.703a16.063 16.063 0 0 0 4.074-9.864h-.996" />
    <g clip-path="url(#b)">
        <path fill="#fff"
            d="M105.727 101.07c0 2.254-2.004 4.301-5.645 5.766-3.387 1.36-7.863 2.11-12.617 2.11-3.59 0-7.035-.43-9.996-1.243a17.741 17.741 0 0 1-18.758 2.059c-6.129-2.969-10.04-9.188-10.074-16.028-2.852-1.406-4.414-3.242-4.414-5.214V46.617c0-2.254 2.004-4.3 5.644-5.762 3.383-1.359 7.863-2.109 12.613-2.109 4.754 0 9.235.75 12.618 2.11 3.64 1.46 5.644 3.507 5.644 5.761v26.168c2.223-.36 4.473-.539 6.723-.535 4.754 0 9.23.75 12.617 2.11 3.64 1.46 5.645 3.507 5.645 5.761Zm-5.375-27.386c-3.47-1.395-8.075-2.164-12.965-2.164-.703 0-1.41.02-2.114.054-.062.004-.125.004-.183.004-.926 0-1.82-.355-2.496-1a3.649 3.649 0 0 1-1.125-2.637V46.617c0-2.57-2.168-4.86-6.102-6.437-3.465-1.395-8.043-2.164-12.887-2.164-4.84 0-9.417.77-12.882 2.164-3.934 1.578-6.102 3.867-6.102 6.437V88.52c0 1.238.527 3.078 3.024 4.82a3.64 3.64 0 0 1 1.53 2.543c.77 6.246 4.731 11.816 10.348 14.535a18.553 18.553 0 0 0 8.051 1.848 18.48 18.48 0 0 0 9.973-2.926 3.61 3.61 0 0 1 2.687-.492c2.575.539 5.461.824 8.356.824 4.84 0 9.414-.766 12.887-2.16 3.933-1.582 6.101-3.867 6.101-6.438V80.121c0-2.57-2.168-4.855-6.101-6.437" />
    </g>
    <path fill="#fff"
        d="M87.36 101.96c-1.665 0-3.325-.1-4.973-.3a17.964 17.964 0 0 1-3.32 4.617c2.757.61 5.574.907 8.398.891 4.531 0 8.781-.703 11.96-1.984 2.88-1.157 4.532-2.657 4.532-4.114v-3.507c-.941.859-2.242 1.632-3.875 2.289-3.387 1.359-7.973 2.109-12.723 2.109M69.95 95.91v-.637h-.567ZM67.793 93.5h2.156l.004-.594h-2.691l.531.594" />
</svg>