<svg xmlns="http://www.w3.org/2000/svg" width="200" viewBox="0 0 150 150" height="200" version="1.0">
    <defs>
        <clipPath id="a">
            <path d="M6.563 6.563h137.25v137.25H6.563Zm0 0" />
        </clipPath>
        <clipPath id="b">
            <path d="M45 56h59.922v15H45Zm0 0" />
        </clipPath>
        <clipPath id="c">
            <path d="M44.922 72h60v35.113h-60Zm0 0" />
        </clipPath>
        <clipPath id="d">
            <path d="M63 42.613h24V64H63Zm0 0" />
        </clipPath>
    </defs>
    <g clip-path="url(#a)">
        <path fill="#f97216"
            d="M143.813 75.188a69.06 69.06 0 0 1-.083 3.367 64.428 64.428 0 0 1-.25 3.36 69.097 69.097 0 0 1-.41 3.343 72.651 72.651 0 0 1-1.313 6.605 71.21 71.21 0 0 1-.898 3.246 69.575 69.575 0 0 1-2.27 6.34 69.753 69.753 0 0 1-2.879 6.086 74.471 74.471 0 0 1-1.66 2.934 69.737 69.737 0 0 1-5.816 8.254 68.137 68.137 0 0 1-6.96 7.312 68.137 68.137 0 0 1-2.551 2.2 68.221 68.221 0 0 1-5.41 4.011 69.737 69.737 0 0 1-2.844 1.805 74.471 74.471 0 0 1-2.934 1.66 69.753 69.753 0 0 1-6.086 2.879 69.575 69.575 0 0 1-6.34 2.27 66.458 66.458 0 0 1-3.246.894c-1.09.273-2.187.52-3.289.738a63.967 63.967 0 0 1-3.316.578c-1.113.164-2.227.301-3.344.41a64.428 64.428 0 0 1-3.36.25 69.06 69.06 0 0 1-6.734 0 64.428 64.428 0 0 1-3.36-.25 69.097 69.097 0 0 1-3.343-.41 63.967 63.967 0 0 1-3.316-.578 67.736 67.736 0 0 1-3.29-.738 66.458 66.458 0 0 1-6.44-1.953 67.628 67.628 0 0 1-6.223-2.578 72.236 72.236 0 0 1-3.012-1.512 77.242 77.242 0 0 1-2.93-1.66 69.737 69.737 0 0 1-8.254-5.817 68.137 68.137 0 0 1-7.312-6.96 68.137 68.137 0 0 1-2.2-2.551 68.221 68.221 0 0 1-4.011-5.41 69.737 69.737 0 0 1-1.805-2.844 74.471 74.471 0 0 1-1.66-2.934 69.753 69.753 0 0 1-2.879-6.086 69.575 69.575 0 0 1-3.168-9.586 72.651 72.651 0 0 1-1.312-6.605 69.097 69.097 0 0 1-.41-3.344 64.428 64.428 0 0 1-.25-3.36 69.06 69.06 0 0 1 0-6.734c.054-1.12.136-2.242.25-3.36.109-1.116.246-2.23.41-3.343a72.651 72.651 0 0 1 1.313-6.605 71.21 71.21 0 0 1 .898-3.246 69.575 69.575 0 0 1 2.27-6.34 69.753 69.753 0 0 1 2.879-6.086 74.471 74.471 0 0 1 1.66-2.934 69.737 69.737 0 0 1 5.816-8.254 68.137 68.137 0 0 1 6.96-7.312 68.137 68.137 0 0 1 2.551-2.2 68.221 68.221 0 0 1 5.41-4.011 69.737 69.737 0 0 1 2.844-1.805 77.242 77.242 0 0 1 2.93-1.66 72.236 72.236 0 0 1 6.09-2.879 69.575 69.575 0 0 1 9.586-3.168 72.651 72.651 0 0 1 6.605-1.312c1.113-.164 2.227-.301 3.344-.41a64.428 64.428 0 0 1 3.36-.25 69.06 69.06 0 0 1 6.734 0c1.12.054 2.242.136 3.36.25 1.116.109 2.23.246 3.343.41a72.651 72.651 0 0 1 6.605 1.313 71.21 71.21 0 0 1 3.246.898 69.575 69.575 0 0 1 6.34 2.27 69.753 69.753 0 0 1 6.086 2.879 74.471 74.471 0 0 1 2.934 1.66 69.737 69.737 0 0 1 8.254 5.816 68.137 68.137 0 0 1 7.312 6.96 68.137 68.137 0 0 1 2.2 2.551 68.221 68.221 0 0 1 4.011 5.41 69.737 69.737 0 0 1 1.805 2.844 74.471 74.471 0 0 1 1.66 2.934 69.753 69.753 0 0 1 2.879 6.086 69.575 69.575 0 0 1 3.168 9.586 72.651 72.651 0 0 1 1.312 6.605c.164 1.113.301 2.227.41 3.344.114 1.117.196 2.238.25 3.36a69.06 69.06 0 0 1 .083 3.367Zm0 0" />
    </g>
    <path fill="#fff"
        d="m77.367 82.535-1.629 1.63c-.11.108-.234.19-.375.25a1.143 1.143 0 0 1-1.258-.25l-1.632-1.63a4.287 4.287 0 0 0-.7-.57 4.698 4.698 0 0 0-1.66-.691 4.677 4.677 0 0 0-.902-.087 4.536 4.536 0 0 0-1.766.352 4.317 4.317 0 0 0-.797.422c-.253.172-.484.36-.699.574a4.484 4.484 0 0 0-.574.7c-.168.25-.313.515-.426.796a4.416 4.416 0 0 0-.351 1.762 4.536 4.536 0 0 0 .352 1.766c.112.277.257.543.425.793.168.253.36.484.574.699l8.973 8.96 8.973-8.96c.214-.215.406-.446.574-.7a4.524 4.524 0 0 0 .688-1.66c.062-.296.09-.593.09-.898 0-.3-.028-.602-.09-.898a4.583 4.583 0 0 0-1.262-2.36 4.716 4.716 0 0 0-.7-.574 4.729 4.729 0 0 0-.797-.426 4.82 4.82 0 0 0-.867-.262 4.637 4.637 0 0 0-.898-.085c-.305 0-.606.027-.903.085a4.698 4.698 0 0 0-1.664.692c-.25.168-.484.355-.699.57Zm0 0" />
    <g clip-path="url(#b)">
        <path fill="#fff"
            d="M104.477 70.258 97.875 57.07a1.16 1.16 0 0 0-1.035-.637h-8.278c-.449 2.63-1.566 4.93-3.351 6.915h4.707a1.14 1.14 0 0 1 .816.336c.11.109.192.23.25.375a1.124 1.124 0 0 1 0 .879 1.147 1.147 0 0 1-1.066.71H59.922c-.152 0-.297-.027-.442-.085a1.147 1.147 0 0 1-.621-.625 1.129 1.129 0 0 1 0-.88c.059-.144.141-.265.25-.374.106-.11.23-.192.371-.25.145-.059.29-.086.442-.086h4.71c-1.784-1.985-2.902-4.285-3.35-6.914H53c-.219 0-.418.058-.605.171-.184.118-.329.27-.426.465l-6.602 13.188Zm0 0" />
    </g>
    <g clip-path="url(#c)">
        <path fill="#fff"
            d="M44.926 72.559v33.402c0 .152.031.3.09.441a1.147 1.147 0 0 0 1.062.711h57.684c.156 0 .3-.027.441-.086a1.147 1.147 0 0 0 .625-.625c.059-.14.09-.289.09-.441V72.559Zm40.601 18.12-9.789 9.774a1.147 1.147 0 0 1-.816.336 1.14 1.14 0 0 1-.817-.336l-9.789-9.773a7.073 7.073 0 0 1-.851-1.047 6.98 6.98 0 0 1-1.145-3.828c.004-.453.047-.903.137-1.344a6.858 6.858 0 0 1 1.035-2.48 6.828 6.828 0 0 1 1.903-1.899c.375-.25.77-.465 1.187-.637a7.157 7.157 0 0 1 1.293-.394c.445-.09.895-.133 1.344-.137.453 0 .902.043 1.347.129a6.75 6.75 0 0 1 1.293.387c.422.168.82.379 1.196.629.379.25.73.53 1.05.847l.817.817.816-.817c.32-.316.672-.597 1.047-.847a6.872 6.872 0 0 1 2.492-1.016c.446-.086.891-.129 1.344-.129.453.004.902.047 1.344.137.445.09.875.219 1.293.394a6.84 6.84 0 0 1 1.191.637c.375.25.727.54 1.047.856.317.32.606.667.856 1.042a6.858 6.858 0 0 1 1.035 2.48c.09.442.133.892.136 1.345 0 .449-.043.898-.128 1.34a6.75 6.75 0 0 1-.387 1.293 7.266 7.266 0 0 1-.63 1.195c-.25.375-.534.726-.85 1.047Zm0 0" />
    </g>
    <g clip-path="url(#d)">
        <path fill="#fff"
            d="M81.813 63.348a11.606 11.606 0 0 0 1.765-1.625 11.57 11.57 0 0 0 2.348-4.152c.242-.766.402-1.551.476-2.348a11.448 11.448 0 0 0-1.52-6.922 11.821 11.821 0 0 0-1.417-1.934 11.783 11.783 0 0 0-1.79-1.597 11.573 11.573 0 0 0-9.14-1.93 11.647 11.647 0 0 0-4.367 1.93 11.6 11.6 0 0 0-1.79 1.597 11.598 11.598 0 0 0-2.405 4.117 11.448 11.448 0 0 0 .902 9.285 11.415 11.415 0 0 0 3.152 3.579Zm-6.891-8.063c-.41 0-.805-.07-1.188-.207-.382-.14-.73-.34-1.043-.601a3.395 3.395 0 0 1-.773-.926 3.457 3.457 0 0 1-.402-2.332c.074-.403.214-.778.421-1.13.208-.35.465-.655.782-.913a3.402 3.402 0 0 1 1.05-.59v-.215c0-.152.028-.297.086-.437a1.147 1.147 0 0 1 1.066-.71 1.14 1.14 0 0 1 .817.335c.106.109.192.23.25.375.059.14.086.285.086.437v.215c.336.117.649.285.934.5.285.21.531.465.734.754a3.384 3.384 0 0 1 .64 1.988c0 .152-.03.3-.089.442a1.147 1.147 0 0 1-1.504.62 1.117 1.117 0 0 1-.625-.62c-.059-.141-.09-.29-.09-.442a1.14 1.14 0 0 0-.71-1.062 1.143 1.143 0 0 0-1.259.25c-.109.105-.19.23-.25.37a1.14 1.14 0 0 0-.085.442 1.14 1.14 0 0 0 .71 1.063c.141.058.29.09.442.09.406 0 .805.066 1.187.206.383.137.73.34 1.043.602a3.437 3.437 0 0 1 1.18 2.055c.07.398.066.8-.008 1.203a3.442 3.442 0 0 1-1.2 2.04 3.413 3.413 0 0 1-1.05.593v.21a1.14 1.14 0 0 1-.71 1.063 1.143 1.143 0 0 1-.884 0 1.201 1.201 0 0 1-.375-.246 1.147 1.147 0 0 1-.335-.816v-.211a3.467 3.467 0 0 1-1.672-1.258 3.404 3.404 0 0 1-.473-.945 3.348 3.348 0 0 1-.164-1.043c0-.153.027-.297.086-.438a1.147 1.147 0 0 1 1.066-.71 1.14 1.14 0 0 1 .817.335c.11.11.191.23.25.375.058.14.09.285.09.438a1.147 1.147 0 0 0 1.152 1.152 1.14 1.14 0 0 0 .816-.336c.106-.11.192-.234.25-.375.059-.14.086-.285.086-.441a1.12 1.12 0 0 0-.086-.438 1.147 1.147 0 0 0-1.066-.71Zm0 0" />
    </g>
</svg>